# xmcd
#
# Track frame offsets:
#	150
#	12690
#	22552
#	36637
#	50623
#	61897
#	75243
#	91130
#	109005
#	121767
#	133645
#	147782
#	167081
#
# Disc length: 2389 seconds
# Revision: 0
# Processed by: cddbd v1.5.2PL0 Copyright (c) Steve Scherf et al.
# Submitted via: dBpowerAMP V12.0
#
DISCID=9e09530d
DTITLE=Prawnhead - Worlds Premier Bluebilly Band
DYEAR=2014
DGENRE=Bluebilly
TTITLE0=We Are Prawnhead
TTITLE1=Ain't No Sunshine
TTITLE2=Long Way To The Top
TTITLE3=El Volvo Diablo
TTITLE4=This Is My Home
TTITLE5=It Didn't Look Good
TTITLE6=Shiver
TTITLE7=Hip Shake
TTITLE8=Anarchy
TTITLE9=Pick On Me
TTITLE10=Down And Disgusted
TTITLE11=Sydney Train
TTITLE12=Prawn To Be Alive
EXTD=
EXTT0=
EXTT1=
EXTT2=
EXTT3=
EXTT4=
EXTT5=
EXTT6=
EXTT7=
EXTT8=
EXTT9=
EXTT10=
EXTT11=
EXTT12=
PLAYORDER=
